<?xml version="1.0" standalone="no"?>
<!DOCTYPE svg PUBLIC "-//W3C//DTD SVG 20010904//EN"
 "http://www.w3.org/TR/2001/REC-SVG-20010904/DTD/svg10.dtd">
<svg version="1.0" xmlns="http://www.w3.org/2000/svg"
 width="988.000000pt" height="988.000000pt" viewBox="0 0 988.000000 988.000000"
 preserveAspectRatio="xMidYMid meet">

<!-- White background -->
<rect width="100%" height="100%" fill="white"/>

<g transform="translate(0.000000,988.000000) scale(0.100000,-0.100000)"
fill="#000000" stroke="none">
<path d="M1823 5942 c-122 -97 -252 -296 -322 -495 -62 -178 -75 -267 -75
-522 0 -201 2 -243 22 -332 56 -258 155 -452 314 -619 85 -88 122 -114 139
-97 8 8 -6 32 -53 85 -149 171 -234 360 -284 633 -26 139 -26 527 -1 665 50
272 139 468 291 638 53 60 62 82 31 82 -7 0 -35 -17 -62 -38z"/>
<path d="M6760 5969 c0 -5 26 -41 58 -78 82 -95 117 -149 167 -254 49 -103 86
-221 112 -360 14 -73 18 -146 18 -352 0 -230 -3 -273 -22 -370 -51 -250 -145
-449 -280 -596 -85 -92 -66 -122 29 -45 144 117 278 337 343 562 44 152 58
263 58 454 -1 334 -72 584 -233 819 -94 138 -250 275 -250 220z"/>
<path d="M4971 5828 c0 -7 167 -346 372 -753 351 -699 374 -740 400 -743 16
-2 35 2 44 9 18 16 743 1462 743 1484 0 13 -93 15 -780 15 -618 0 -780 -3
-779 -12z m1419 -143 c0 -10 -570 -1145 -575 -1145 -5 0 -575 1135 -575 1145
0 3 259 5 575 5 316 0 575 -2 575 -5z"/>
<path d="M2084 5331 c-2 -2 -4 -24 -4 -47 l0 -43 71 -3 71 -3 186 -402 c103
-220 196 -411 206 -422 27 -29 86 -28 113 2 11 12 103 198 203 414 100 217
189 394 198 398 8 3 42 8 74 12 l59 6 -3 44 -3 44 -178 2 -177 2 0 -47 0 -47
45 -7 c25 -3 47 -10 50 -14 7 -12 -247 -552 -256 -543 -10 10 -259 544 -259
555 0 4 25 8 55 8 l55 0 0 48 0 47 -251 0 c-138 0 -253 -2 -255 -4z"/>
<path d="M7514 5331 c-2 -2 -4 -24 -4 -48 l0 -43 69 0 69 0 187 -402 c103
-222 196 -413 208 -425 24 -27 82 -31 108 -7 9 8 99 192 199 407 101 216 187
396 191 402 5 5 39 14 77 20 l67 11 0 43 0 42 -178 2 -177 2 0 -46 0 -47 48
-9 c33 -6 46 -13 44 -24 -5 -23 -246 -539 -252 -539 -5 1 -253 532 -258 556
-3 11 9 14 53 14 l56 0 -3 46 -3 46 -248 1 c-137 1 -251 0 -253 -2z"/>
<path d="M4058 5024 c-34 -18 -58 -62 -58 -105 0 -22 10 -41 34 -65 29 -29 41
-34 79 -34 116 0 150 152 47 205 -36 19 -67 18 -102 -1z"/>
</g>
</svg>
